<?xml version="1.0" standalone="no"?>
<!DOCTYPE svg PUBLIC "-//W3C//DTD SVG 20010904//EN"
 "http://www.w3.org/TR/2001/REC-SVG-20010904/DTD/svg10.dtd">
<svg version="1.0" xmlns="http://www.w3.org/2000/svg"
 width="700.000000pt" height="700.000000pt" viewBox="0 0 700.000000 700.000000"
 preserveAspectRatio="xMidYMid meet">
<metadata>
Created by potrace 1.14, written by Peter Selinger 2001-2017
</metadata>
<g transform="translate(0.000000,700.000000) scale(0.100000,-0.100000)"
fill="#000000" stroke="none">
<path d="M2059 6993 c-1 -4 -2 -684 -3 -1510 l-1 -1503 153 0 c151 0 152 0
153 23 0 12 1 543 1 1180 1 636 2 1156 3 1155 1 -2 30 -48 64 -103 34 -55 66
-107 71 -115 5 -8 28 -46 52 -85 23 -38 45 -72 48 -75 3 -3 12 -17 20 -33 41
-74 654 -1058 664 -1064 6 -4 57 -8 112 -8 l101 0 63 100 c35 55 73 116 85
135 13 19 143 231 290 470 147 239 317 514 376 610 l109 174 0 -1182 0 -1183
153 3 152 3 0 1508 0 1507 -110 0 -110 0 -300 -480 c-165 -264 -304 -488 -310
-497 -5 -10 -73 -118 -150 -241 -77 -122 -147 -233 -155 -247 -168 -275 -174
-283 -190 -261 -9 12 -79 122 -157 246 -77 124 -229 367 -337 540 -109 173
-202 322 -207 330 -5 8 -92 148 -193 310 l-184 295 -131 3 c-72 1 -132 -1
-132 -5z"/>
<path d="M2056 1523 c1 -824 2 -1504 3 -1510 1 -10 34 -13 130 -13 l129 0 43
68 c24 37 48 75 54 85 5 10 183 295 395 633 212 338 392 625 400 639 97 159
196 315 202 315 3 0 134 -204 289 -452 155 -249 301 -482 324 -518 23 -36 140
-224 261 -417 l219 -353 110 0 110 0 0 1510 0 1510 -152 0 -153 0 -1 -627 c0
-346 0 -878 0 -1183 l1 -555 -44 70 c-25 39 -231 363 -459 720 l-413 650 -111
3 -111 3 -79 -128 c-121 -193 -437 -705 -448 -725 -5 -10 -39 -64 -74 -120
-94 -151 -265 -428 -286 -466 -11 -17 -22 -32 -26 -32 -3 0 -6 530 -7 1178 0
647 -1 1185 -1 1195 -1 15 -15 17 -153 17 l-153 0 1 -1497z"/>
</g>
</svg>
