<svg xmlns="http://www.w3.org/2000/svg" width="37.421" height="38.133" viewBox="0 0 37.421 38.133">
  <g id="Grupo_1773" data-name="Grupo 1773" transform="translate(-5.807 -5.74)">
    <path id="Caminho_252" data-name="Caminho 252" d="M42.637,19.774a18.736,18.736,0,0,0-32.052-7.852A19,19,0,0,0,8.8,34.765c-.357,2.57-.642,5.14-1,7.71-.143.928,1,1.57,1.785,1.356,2.5-.714,5.068-1.356,7.567-2.07A18.764,18.764,0,0,0,42.637,19.774Zm-5,13.777a15.991,15.991,0,0,1-19.631,5.5h-.071a1.716,1.716,0,0,0-1.071-.143c-2,.571-4,1.071-6,1.642.214-1.713.428-3.355.642-5.068a3.048,3.048,0,0,0-.071-1.785c-.214-.357-.5-.714-.714-1.142A18.848,18.848,0,0,1,9.443,29.84,15.971,15.971,0,0,1,38.068,16.134,16.19,16.19,0,0,1,37.64,33.552Z" transform="translate(0)"/>
    <path id="Caminho_253" data-name="Caminho 253" d="M37.521,29.917l-3.212-2.5a2.406,2.406,0,0,0-3.212.214l-.928.928a13.278,13.278,0,0,1-2-1.5,10.447,10.447,0,0,1-1.5-2l.928-.928a2.487,2.487,0,0,0,.214-3.212l-2.5-3.284A2.611,2.611,0,0,0,23.172,16.5a2.958,2.958,0,0,0-2.284.857L18.1,20.137a5.2,5.2,0,0,0-.928,6,28.446,28.446,0,0,0,5.068,6.853A29.915,29.915,0,0,0,29.1,38.055a4.779,4.779,0,0,0,2.356.571,4.913,4.913,0,0,0,3.569-1.5l2.784-2.784a2.958,2.958,0,0,0,.857-2.284A2.611,2.611,0,0,0,37.521,29.917Zm-1.713,2.427-2.784,2.784a2.29,2.29,0,0,1-2.641.428A25.6,25.6,0,0,1,19.6,24.777a2.29,2.29,0,0,1,.428-2.641l2.784-2.784h.071c.071,0,.071,0,.071.071l2.284,3-.928.857a2.378,2.378,0,0,0-.428,2.784A12.5,12.5,0,0,0,29.1,31.273a2.271,2.271,0,0,0,2.713-.428l1-1,2.927,2.284a.07.07,0,0,1,.071.071Z" transform="translate(-3.093 -3.075)"/>
  </g>
</svg>
