<svg xmlns="http://www.w3.org/2000/svg" width="22.794" height="22.997" viewBox="0 0 22.794 22.997">
  <path id="iconmonstr-instagram-11" d="M11.4,2.073c3.043,0,3.4.011,4.606.067,3.089.142,4.531,1.62,4.672,4.713.055,1.212.066,1.576.066,4.646s-.011,3.434-.066,4.646c-.142,3.09-1.58,4.572-4.672,4.713-1.2.056-1.561.067-4.606.067s-3.4-.011-4.605-.067c-3.1-.143-4.531-1.628-4.672-4.714-.055-1.212-.066-1.575-.066-4.646s.012-3.433.066-4.646C2.261,3.76,3.7,2.281,6.792,2.139c1.2-.055,1.562-.066,4.605-.066ZM11.4,0C8.3,0,7.914.013,6.7.069,2.56.261.259,2.578.069,6.757.013,7.985,0,8.376,0,11.5s.013,3.515.068,4.741c.19,4.176,2.486,6.5,6.629,6.688,1.217.056,1.6.069,4.7.069s3.484-.013,4.7-.069c4.135-.192,6.441-2.509,6.628-6.688.056-1.227.069-1.618.069-4.741s-.013-3.514-.068-4.74C22.54,2.586,20.24.262,16.1.07,14.881.013,14.492,0,11.4,0Zm0,5.594a5.905,5.905,0,1,0,5.852,5.9A5.879,5.879,0,0,0,11.4,5.594Zm0,9.737A3.833,3.833,0,1,1,15.2,11.5,3.816,3.816,0,0,1,11.4,15.331Zm6.084-11.35a1.38,1.38,0,1,0,1.367,1.38A1.374,1.374,0,0,0,17.481,3.981Z" transform="translate(0 0)" fill="#fff"/>
</svg>
