<svg xmlns="http://www.w3.org/2000/svg" width="22.997" height="22.997" viewBox="0 0 22.997 22.997">
  <path id="iconmonstr-linkedin-3" d="M18.206,0H4.791A4.792,4.792,0,0,0,0,4.791V18.206A4.792,4.792,0,0,0,4.791,23H18.206A4.791,4.791,0,0,0,23,18.206V4.791A4.791,4.791,0,0,0,18.206,0ZM7.666,18.206H4.791V7.666H7.666ZM6.228,6.451A1.69,1.69,0,1,1,7.905,4.76,1.684,1.684,0,0,1,6.228,6.451ZM19.164,18.206H16.289v-5.37c0-3.227-3.833-2.983-3.833,0v5.37H9.582V7.666h2.875V9.357c1.338-2.478,6.707-2.661,6.707,2.373Z" fill="#fff"/>
</svg>
