<svg id="Grupo_1808" data-name="Grupo 1808" xmlns="http://www.w3.org/2000/svg" xmlns:xlink="http://www.w3.org/1999/xlink" width="48.896" height="64.25" viewBox="0 0 48.896 64.25">
  <defs>
    <clipPath id="clip-path">
      <rect id="Ret창ngulo_2766" data-name="Ret창ngulo 2766" width="48.896" height="64.25" fill="none"/>
    </clipPath>
    <clipPath id="clip-path-2">
      <rect id="Ret창ngulo_2767" data-name="Ret창ngulo 2767" width="48.896" height="64.249" fill="none"/>
    </clipPath>
  </defs>
  <g id="Grupo_1809" data-name="Grupo 1809">
    <g id="Grupo_1808-2" data-name="Grupo 1808" clip-path="url(#clip-path)">
      <path id="Caminho_281" data-name="Caminho 281" d="M47.123,0a43.242,43.242,0,0,1-3.738,6.227c-1.865,4.662,2.215,8.58,2.215,8.58a4.891,4.891,0,0,1-4.153-3.46c-1.177-5.466-4.014-6.089-4.014-6.089a5.777,5.777,0,0,0-5.26.276c2.56.9,2.353,4.844,2.353,4.844a22.412,22.412,0,0,0,.692,4.428,13.493,13.493,0,0,1-2.491-4.844,6.273,6.273,0,0,0-1.8-3.183l-.969.831a32.5,32.5,0,0,1,2.907,4.013c2.007,4.013,3.876,5.12,3.876,5.12a3.293,3.293,0,0,0,3.46.139c-2.768-.969-3.738-4.152-3.738-4.152-.692-2.768-1.108-4.981-1.108-4.981a2.818,2.818,0,0,0-1.868-2.007,3.6,3.6,0,0,1,3.945,1.038,13.094,13.094,0,0,1,2.353,4.429,5.161,5.161,0,0,0,3.045,3.321,15.847,15.847,0,0,0,3.876.692,8.119,8.119,0,0,1-1.938-3.114,7.924,7.924,0,0,1,.485-6.226A33.238,33.238,0,0,0,47.192.9,28.68,28.68,0,0,1,49.961,6.02c1.314,4.705-1.454,8.926-1.454,8.926a20.219,20.219,0,0,1,5.26-4.912c3.876-2.976,1.868-7.611,1.868-7.611A5.2,5.2,0,0,1,58.889,6.5a6.4,6.4,0,0,1-.97,5.12c-1.8,2.353-2.768,3.668-2.768,3.668a13.8,13.8,0,0,1,5.122-1.868,26.98,26.98,0,0,0,5.537-1.107c1.661-.831,1.523-1.522,1.523-1.522a12.757,12.757,0,0,1-4.429.554,8.147,8.147,0,0,0-3.738,1.107,6.285,6.285,0,0,0,1.246-5.4c-.624-4.428-5.814-5.4-5.814-5.4a4,4,0,0,1-.346,5.4c-1.108.9-1.73,1.522-1.73,1.522-1.176,1.176-1.108,1.938-1.108,1.938A8.5,8.5,0,0,0,51,5.12c-.138-.83-1.661-2.49-2.353-3.044A9.023,9.023,0,0,1,47.123,0" transform="translate(-22.735)" fill="#fff"/>
      <path id="Caminho_282" data-name="Caminho 282" d="M114.638,2.584c.346,0,1.246.138,1.246.138a7.72,7.72,0,0,1,.554,3.737,10.426,10.426,0,0,0-1.8-3.875" transform="translate(-86.997 -1.961)" fill="#fff"/>
      <path id="Caminho_283" data-name="Caminho 283" d="M125.543,4.878c.346.07.969.208.969.208a12.394,12.394,0,0,1-.346,4.221,15.272,15.272,0,0,0-.624-4.429" transform="translate(-95.273 -3.702)" fill="#fff"/>
      <path id="Caminho_284" data-name="Caminho 284" d="M94.961,27.549h-.277a22.317,22.317,0,0,0-.138,2.422l.346.138a8.5,8.5,0,0,1,.069-2.56" transform="translate(-71.75 -20.907)" fill="#fff"/>
      <path id="Caminho_285" data-name="Caminho 285" d="M85.229,2.584a4.768,4.768,0,0,0-1.246.346,15.391,15.391,0,0,0-.277,4.7,19.168,19.168,0,0,1,1.523-5.051" transform="translate(-63.471 -1.961)" fill="#fff"/>
      <path id="Caminho_286" data-name="Caminho 286" d="M75.874,5.167a3.248,3.248,0,0,0-1.007.138,52.394,52.394,0,0,0,1.215,8.165c-.277-3.391-.208-8.3-.208-8.3" transform="translate(-56.815 -3.921)" fill="#fff"/>
      <path id="Caminho_287" data-name="Caminho 287" d="M62.572,7.749a4.992,4.992,0,0,0-1.038.484,27,27,0,0,1,3.114,4.428,16.052,16.052,0,0,0-2.076-4.912" transform="translate(-46.697 -5.881)" fill="#fff"/>
      <path id="Caminho_288" data-name="Caminho 288" d="M53.7,12.757c-.415.208-1.07.453-1.07.453a2.67,2.67,0,0,1,1.73.554,3.625,3.625,0,0,0-.661-1.007" transform="translate(-39.944 -9.681)" fill="#fff"/>
      <path id="Caminho_289" data-name="Caminho 289" d="M126.52,32.419l-.277-.276a19.444,19.444,0,0,1-4.43,4.7l.416.069a55.891,55.891,0,0,0,4.291-4.5" transform="translate(-92.442 -24.393)" fill="#fff"/>
      <path id="Caminho_290" data-name="Caminho 290" d="M159.419,21.235a5.761,5.761,0,0,1,.968.969,9.882,9.882,0,0,1-.623,1.245,3.1,3.1,0,0,0-.346-2.214" transform="translate(-120.981 -16.115)" fill="#fff"/>
      <path id="Caminho_291" data-name="Caminho 291" d="M108.608,69.761a3.158,3.158,0,0,1,4.362-1.538,8.146,8.146,0,0,1,2.283,1.814c-1.979-1.209-4.675-1.774-6.645-.277" transform="translate(-82.421 -51.493)" fill="#fff"/>
      <path id="Caminho_292" data-name="Caminho 292" d="M18.717,43.238c2.542,1.424,4.326,3.628,6.66,5.232-2.505-1.455-4.874-3.134-7.475-4.429,0-.554.538-1.087.692-1.315.062-.09-.02.431.123.511" transform="translate(-13.586 -32.416)" fill="#fff"/>
      <path id="Caminho_293" data-name="Caminho 293" d="M13,56.5a14.819,14.819,0,0,1,4.426,1.405c-1.718-.54-3.391-1.283-5.259-1.107.194-.134.352-.285.277-.554A2,2,0,0,0,13,56.5" transform="translate(-9.23 -42.686)" fill="#fff"/>
      <path id="Caminho_294" data-name="Caminho 294" d="M5.687,68.966c.592-.192,1.271.175,1.917.175a4.632,4.632,0,0,0-2.215.83c-.056-.326.084-.936.3-1.005" transform="translate(-4.08 -52.295)" fill="#fff"/>
      <path id="Caminho_295" data-name="Caminho 295" d="M74.739,95.849c4.637,3.46.692,7.127.692,7.127,6.713-4.151-.692-7.127-.692-7.127" transform="translate(-56.718 -72.738)" fill="#fff"/>
      <path id="Caminho_296" data-name="Caminho 296" d="M92.83,94.265l-.072-.138a13.223,13.223,0,0,1-.8,2.249c.242.034.242,0,.242,0a12.6,12.6,0,0,0,.625-2.111" transform="translate(-69.789 -71.432)" fill="#fff"/>
      <path id="Caminho_297" data-name="Caminho 297" d="M27.267,78.662c-.727-.173-1.384-.346-1.384-.346a1.718,1.718,0,0,0-1.246.415c-.311.658.415,1.107.415,1.107a2.809,2.809,0,0,0,1.454-.276,2.1,2.1,0,0,0,.761-.9m.138-.727a7.517,7.517,0,0,0-1.418-1.141,2.3,2.3,0,0,0-1.281.242c-.346.38.242.9.242.9a6.1,6.1,0,0,0,2.456,0m-21.386-5.6C4.289,70.255.967,71.293.967,71.293a13.676,13.676,0,0,1,6.714-4.567,11.762,11.762,0,0,1,6.92,1.522,5.983,5.983,0,0,0,3.115.138,12.082,12.082,0,0,0,1.73-2.007c1.671-2.261,4.36-.761,4.36-.761a4.109,4.109,0,0,1,1.73,2.836,17.129,17.129,0,0,1-.9,5.812c.692.069,1.938.208,1.938.208.9-.069,1.384-1.176,1.384-1.176-.208-.969-.9-.9-.9-.9a2.508,2.508,0,0,0-.831.346l-.208-.208.138-.346a3.052,3.052,0,0,1,1.592-.208,2.2,2.2,0,0,1,.969,1.315c-.623,1.522-1.316,1.522-1.316,1.522a5.4,5.4,0,0,0-1.453,1.453,2.461,2.461,0,0,1,1.523.969,3.4,3.4,0,0,0,1.246.969.707.707,0,0,0,.761-.277c-.415-4.151,4.221-4.844,4.221-4.844V73.3a7.891,7.891,0,0,0-2.661,2.252,4.3,4.3,0,0,0,.655,4.806l-.069.207c-.969-.346-1.831-1.9-1.831-1.9a8.7,8.7,0,0,1-1.976.17,2.658,2.658,0,0,1-1.661,1.384,10.451,10.451,0,0,0-1.522.346,2.131,2.131,0,0,0-.831,1.245,1,1,0,0,0,.761,1.245c10.175.831,10.52-9.271,10.52-9.271H35.3c-.692,8.787-6.574,10.1-6.574,10.1l-.415,1.937-.554-1.591a11.313,11.313,0,0,1-5.191-.208c-.692,1.038-2.838,3.806-2.838,3.806a18.818,18.818,0,0,1,1.868-4.221,10.233,10.233,0,0,1-4.36-4.29c-.762.761-3.53,1.522-3.53,1.522a32.371,32.371,0,0,0,2.838-2.906,8.348,8.348,0,0,1-.415-2.975l.553-.623c.831,6.851,6.368,8.3,6.368,8.3a2.563,2.563,0,0,1,1.277-2.522c-1.316-1.315.069-2.044.069-2.044-1.177-1.315.66-1.767.66-1.767a8.834,8.834,0,0,0,1.592-1.416c-1.107.138-2.976.208-2.976.208a12.187,12.187,0,0,0,1.177-6.366c-.761-2.007-2.146-2.076-2.146-2.076a3.027,3.027,0,0,0-3.252.415,15.552,15.552,0,0,1-1.938,1.868c-1.592,1.868-4.914.277-4.914.277a28.377,28.377,0,0,0-5.676-.9A6.348,6.348,0,0,0,1.8,70.877a7.29,7.29,0,0,1,5.468.484,20.112,20.112,0,0,1,4.153,2.975c1.8,1.522,5.052.139,5.052.139-1.661,1.8-4.914,1.591-4.914,1.591-2.491-.554-5.122-3.529-5.329-3.667" transform="translate(-0.734 -49.427)" fill="#fff"/>
      <path id="Caminho_298" data-name="Caminho 298" d="M106.432,77.261a5.649,5.649,0,0,0,1.592.761,1.421,1.421,0,0,1-.1-1.73,1.944,1.944,0,0,0-1.488.969m2.631.832a.808.808,0,1,0-.937-.8.876.876,0,0,0,.937.8m2.353-1.247a2.469,2.469,0,0,0-1.246-.519,2.442,2.442,0,0,1,.554.9,2.081,2.081,0,0,1-.55,1.142,3.064,3.064,0,0,0,1.934-.969,2.06,2.06,0,0,1-1.28,1.246,2.826,2.826,0,0,1-2.457.1,7.355,7.355,0,0,1-2.63-1.453,4.363,4.363,0,0,1,1.488-1.453,3.537,3.537,0,0,1,4.083.173,4.025,4.025,0,0,0,1.9.865s-.276.38-1.8-.034" transform="translate(-80.245 -57.126)" fill="#fff"/>
      <path id="Caminho_299" data-name="Caminho 299" d="M160.079,29.214a12.43,12.43,0,0,1-3.247,3.912A13.988,13.988,0,0,0,159.6,28.7c.185.185.517.441.479.516" transform="translate(-119.018 -21.778)" fill="#fff"/>
      <path id="Caminho_300" data-name="Caminho 300" d="M167.411,37.881a3.246,3.246,0,0,1,.693.9,12.761,12.761,0,0,0-3.807.83c.969-.554,3.114-1.73,3.114-1.73" transform="translate(-124.683 -28.747)" fill="#fff"/>
      <path id="Caminho_301" data-name="Caminho 301" d="M152.793,49.36c.277,3.529-1.8,4.913-1.8,4.913a14.731,14.731,0,0,1-4.845,1.453,5.506,5.506,0,0,0-3.669,2.629c.277-2.283,2.768-3.667,2.768-3.667a30.782,30.782,0,0,1,5.122-1.73c2.145-.554,2.423-3.6,2.423-3.6" transform="translate(-108.126 -37.459)" fill="#fff"/>
      <path id="Caminho_302" data-name="Caminho 302" d="M173.9,64c.277.692.484,1.453.484,1.453-2.214,1.938-6.644,1.661-6.644,1.661C172.725,66.28,173.9,64,173.9,64" transform="translate(-127.297 -48.566)" fill="#fff"/>
      <path id="Caminho_303" data-name="Caminho 303" d="M173.92,74.9a2.286,2.286,0,0,1,0,1.453c-2.768.9-7.613-.485-7.613-.485,6.3.277,7.613-.968,7.613-.968" transform="translate(-126.208 -56.841)" fill="#fff"/>
      <path id="Caminho_304" data-name="Caminho 304" d="M148.557,102.2a5.433,5.433,0,0,1-4.637-2.283,28.447,28.447,0,0,0-4.43-5.12,9.513,9.513,0,0,1,4.292,2.007,6.57,6.57,0,0,0,4.291,1.107s3.529-.346,4.291-2.7a6.637,6.637,0,0,1-5.329-2.006,27.354,27.354,0,0,1-4.153-3.875,12.227,12.227,0,0,0,2.215.761,9.95,9.95,0,0,0,4.638-.553s1.522-.553,4.014-1.453a11.863,11.863,0,0,1-2.976-2.214s-2.423-2.768-4.914-3.252a9.763,9.763,0,0,0-5.4,1.315,10.322,10.322,0,0,1-1.523.623l.416.415c4.637-2.007,7.405-.761,7.405-.761a9.753,9.753,0,0,1,3.253,2.007,11.3,11.3,0,0,0,2.7,1.73,24.428,24.428,0,0,1-2.562.83c-1.938.623-6.437.139-6.437.139a11.615,11.615,0,0,1-2.768-1.177c1.384,1.8,4.638,5.4,4.638,5.4A10.21,10.21,0,0,0,151.6,95.9c-1.246,1.107-5.26.554-5.26.554A10.292,10.292,0,0,1,142.4,95a12.284,12.284,0,0,0-4.222-.554c1.384,1.591,3.184,3.944,3.184,3.944,1.868,3.46,3.529,3.667,3.529,3.667a9.66,9.66,0,0,0,3.668.138" transform="translate(-104.859 -62.69)" fill="#fff"/>
      <path id="Caminho_305" data-name="Caminho 305" d="M75.627,77.53s-.739-.92-1.218-1a1.567,1.567,0,0,1,.146,1.656s.435.222,1.072-.658m-2.35.624a.808.808,0,1,0-.937-.8.876.876,0,0,0,.937.8m1.278.517a3.722,3.722,0,0,1-2.457-.208s-.657-.346-1.453-.761a8.975,8.975,0,0,1,1.384.277s-.207-.934.069-1.246c0,0-.657.277-1.073.484a3.582,3.582,0,0,1-1.453.346s.831-.415,1.073-.588a8.673,8.673,0,0,1,1.7-1.246,2.755,2.755,0,0,1,2.18-.069,6,6,0,0,1,1.834,1.868,4.975,4.975,0,0,1-1.8,1.142" transform="translate(-52.797 -57.257)" fill="#fff"/>
      <path id="Caminho_306" data-name="Caminho 306" d="M185.827,88.1a26.162,26.162,0,0,0,3.668.692c.208.208.139.9.139.9a14.423,14.423,0,0,1-3.806-1.591" transform="translate(-141.021 -66.859)" fill="#fff"/>
      <path id="Caminho_307" data-name="Caminho 307" d="M182.379,112.692a19.685,19.685,0,0,0,4.361-.484,1.381,1.381,0,0,1-.069.692,24.7,24.7,0,0,1-4.292-.207" transform="translate(-138.405 -85.153)" fill="#fff"/>
      <path id="Caminho_308" data-name="Caminho 308" d="M171.475,115.938a19.29,19.29,0,0,0,6.99.623,7.624,7.624,0,0,1-.139,1.246c-5.053-.069-6.851-1.868-6.851-1.868" transform="translate(-130.13 -87.984)" fill="#fff"/>
      <path id="Caminho_309" data-name="Caminho 309" d="M184.391,127.129a22.058,22.058,0,0,0,3.461.277,2.791,2.791,0,0,1-.277.83,12.031,12.031,0,0,1-3.184-1.107" transform="translate(-139.932 -96.476)" fill="#fff"/>
      <path id="Caminho_310" data-name="Caminho 310" d="M163.148,145.5c4.084,1.73,6.506.692,6.506.692a5.512,5.512,0,0,1-.831,1.661,13.619,13.619,0,0,1-5.675-2.352" transform="translate(-123.811 -110.416)" fill="#fff"/>
      <path id="Caminho_311" data-name="Caminho 311" d="M164.585,151.522a17.407,17.407,0,0,0,5.052,1.522c-.276.346-.623.761-.623.761a7.073,7.073,0,0,1-4.429-2.283" transform="translate(-124.901 -114.988)" fill="#fff"/>
      <path id="Caminho_312" data-name="Caminho 312" d="M87.079,138.806c-3.253,3.114-6.229.692-6.229.692a10.616,10.616,0,0,1-3.184-3.806,18.123,18.123,0,0,0-3.46-3.667,20.618,20.618,0,0,1-.485,6.019,13.125,13.125,0,0,0,.485,5.051c.761,1.661,3.39,2.975,3.39,2.975a7.779,7.779,0,0,1-5.536-1.315,8.8,8.8,0,0,1-2.63-4.221,60.3,60.3,0,0,0-1.938-6.089,11.091,11.091,0,0,1-2.146,3.944,15.258,15.258,0,0,0-3.391,4.082,4.31,4.31,0,0,0,.554,5.258c-2.7-1.246-3.046-4.705-3.046-4.705a8.591,8.591,0,0,1,.623-5.467,11.658,11.658,0,0,0,1.315-3.183c.623-1.314.138-3.806.138-3.806a10.39,10.39,0,0,1-1.661,4.775c-2.146,3.39-2.076,5.673-2.076,5.673.138,6.85,5.675,7.127,5.675,7.127-1.938-1.661-1.107-3.322-1.107-3.322a7.539,7.539,0,0,1,2.284-3.321,10.674,10.674,0,0,0,2.838-4.843,30.132,30.132,0,0,0,1.176,5.951,5.616,5.616,0,0,0,3.046,3.459,6.8,6.8,0,0,0,6.712-.138,4.509,4.509,0,0,1-2.975-3.737,12.386,12.386,0,0,1-.138-4.705,18.45,18.45,0,0,0-.07-3.114,27.209,27.209,0,0,1,3.046,4.636c1.176,2.077,4.014,2.63,4.014,2.63,3.322.484,4.776-2.837,4.776-2.837" transform="translate(-43.865 -99.089)" fill="#fff"/>
      <path id="Caminho_313" data-name="Caminho 313" d="M135.88,163.575c2.837,4.5,6.229,4.567,6.229,4.567a6.123,6.123,0,0,1-.969.831c-3.669-.969-5.26-5.4-5.26-5.4" transform="translate(-103.117 -124.135)" fill="#fff"/>
      <path id="Caminho_314" data-name="Caminho 314" d="M137.314,176.776c1.868,2.7,3.876,3.044,3.876,3.044-.484.277-1.039.623-1.039.623a5.542,5.542,0,0,1-2.837-3.668" transform="translate(-104.206 -134.153)" fill="#fff"/>
      <path id="Caminho_315" data-name="Caminho 315" d="M96.741,173.332c.622,4.844,2.768,7.127,2.768,7.127-.485.069-1.038.139-1.038.139-2.146-2.837-1.73-7.266-1.73-7.266" transform="translate(-73.391 -131.539)" fill="#fff"/>
      <path id="Caminho_316" data-name="Caminho 316" d="M88.967,175.915a9.992,9.992,0,0,0,2.007,6.643,8.069,8.069,0,0,1-1.522-.07,8.848,8.848,0,0,1-.485-6.573" transform="translate(-67.209 -133.499)" fill="#fff"/>
      <path id="Caminho_317" data-name="Caminho 317" d="M82.939,183.374a16.251,16.251,0,0,0,.207,3.806l-.761-.138a17.4,17.4,0,0,1,.208-3.529Z" transform="translate(-62.496 -139.16)" fill="#fff"/>
      <path id="Caminho_318" data-name="Caminho 318" d="M33.221,130.573c-.831,3.46-2.838,4.221-2.838,4.221a10.656,10.656,0,0,1-5.329,1.938c-3.529.415-4.568,2.214-4.568,2.214a6.2,6.2,0,0,1,4.014-3.6,32.355,32.355,0,0,0,5.122-1.315,6.881,6.881,0,0,0,3.6-3.46" transform="translate(-15.547 -99.09)" fill="#fff"/>
      <path id="Caminho_319" data-name="Caminho 319" d="M28.792,107.616a18.041,18.041,0,0,1-5.468,5.121,9.708,9.708,0,0,0-4.013,4.082,6.14,6.14,0,0,0-.9,4.221c-1.523-2.284.069-5.951.069-5.951,1.454-3.322,6.506-4.843,6.506-4.843a18.992,18.992,0,0,0,3.807-2.63" transform="translate(-13.471 -81.668)" fill="#fff"/>
      <path id="Caminho_320" data-name="Caminho 320" d="M10.633,132.581a13.14,13.14,0,0,0-2.491,2.491,3.1,3.1,0,0,0,.554.969,20.082,20.082,0,0,1,1.938-3.46" transform="translate(-6.179 -100.614)" fill="#fff"/>
    </g>
  </g>
  <g id="Grupo_1811" data-name="Grupo 1811" transform="translate(0 0)">
    <g id="Grupo_1810" data-name="Grupo 1810" clip-path="url(#clip-path-2)">
      <path id="Caminho_321" data-name="Caminho 321" d="M27.064,113.93a15.777,15.777,0,0,0-5.468,1.384,4.225,4.225,0,0,0,0,1.383c1.315-1.452,5.468-2.767,5.468-2.767" transform="translate(-16.343 -86.46)" fill="#fff"/>
      <path id="Caminho_322" data-name="Caminho 322" d="M7.743,98.941C2.967,97,.2,98.18.2,98.18a5.8,5.8,0,0,0,0,1.592c2.768-2.491,7.544-.83,7.544-.83" transform="translate(-0.104 -74.239)" fill="#fff"/>
    </g>
  </g>
  <g id="Grupo_1813" data-name="Grupo 1813">
    <g id="Grupo_1812" data-name="Grupo 1812" clip-path="url(#clip-path)">
      <path id="Caminho_323" data-name="Caminho 323" d="M10.329,108.768a12.132,12.132,0,0,0-8.79,1.522,6.9,6.9,0,0,0,.277,1.315c2.077-2.768,8.513-2.837,8.513-2.837" transform="translate(-1.168 -82.336)" fill="#fff"/>
      <path id="Caminho_324" data-name="Caminho 324" d="M50.3,157.261a12.027,12.027,0,0,0-2.284,7.4A8.753,8.753,0,0,0,49.4,165.7c-1.592-2.768.9-8.442.9-8.442" transform="translate(-36.432 -119.343)" fill="#fff"/>
      <path id="Caminho_325" data-name="Caminho 325" d="M41.86,154.68a9.566,9.566,0,0,0-4.152,6.435,5.479,5.479,0,0,0,1.246,1.038c-.623-3.944,2.907-7.473,2.907-7.473" transform="translate(-28.616 -117.384)" fill="#fff"/>
      <path id="Caminho_326" data-name="Caminho 326" d="M34.842,150.662a21.355,21.355,0,0,0-5.744,5.6,5.214,5.214,0,0,0,1.107,1.107c.554-2.975,4.637-6.711,4.637-6.711" transform="translate(-22.082 -114.335)" fill="#fff"/>
      <path id="Caminho_327" data-name="Caminho 327" d="M61.344,87.24a9.622,9.622,0,0,1-1.176.069l-.07.277c.415,0,1.246-.069,1.246-.069Z" transform="translate(-45.608 -66.205)" fill="#fff"/>
      <path id="Caminho_328" data-name="Caminho 328" d="M46.882,87.309a5.182,5.182,0,0,1-2.215-.069c0,.208-.069.208-.069.208a3.471,3.471,0,0,0,2.146.069Z" transform="translate(-33.845 -66.205)" fill="#fff"/>
      <path id="Caminho_329" data-name="Caminho 329" d="M178.076,96.71a9.086,9.086,0,0,1,2.215,1.315l-.208.069a7.653,7.653,0,0,0-1.938-1.107Z" transform="translate(-135.139 -73.392)" fill="#fff"/>
    </g>
  </g>
  <g id="Grupo_1815" data-name="Grupo 1815" transform="translate(0 0)">
    <g id="Grupo_1814" data-name="Grupo 1814" clip-path="url(#clip-path-2)">
      <path id="Caminho_330" data-name="Caminho 330" d="M65.444,215.745H55.829c-.721.053-1.427-.018-2.149-.035v.7c1.633,0,1.736.963,1.736,2.235v5.14c0,2.148-1.255,3.3-3.4,3.3-2.2,0-2.94-1.134-2.888-3.18V217.79c0-1.083-.155-1.375,1.513-1.375v-.7c-.808.017-2.4-.017-3.379,0-.533.009-1.539-.068-2.071-.051-.653-.018-.86-.009-1.53-.026a38.038,38.038,0,0,1-4.47,5.629v-3.454c0-1.1-.155-1.392,1.513-1.392v-.7c-.808.017-1.788,0-2.768.035-1,.037-2.768-.076-2.768-.076s-.017.406,0,.7c1.771,0,1.513.694,1.513,3.582v5.569c-.035,1.066.241,1.41-1.513,1.41v.7c.808-.019,1.788-.019,2.768-.035.98.016,1.96.016,2.768.035v-.7c-1.668,0-1.513-.293-1.513-1.41v-3.678a44.269,44.269,0,0,1,4.195,5.792c.533-.019,1.066-.019,1.6-.035.671.016,1.359.016,2.046.035v-.671c-1.255-.24-1.118-.205-1.892-1.288l-3.868-5.26.946-1.082c1.667-1.909,2.2-2.911,3.387-2.923.832.012.98.344,1.015,1.375v5.981c0,3.489,1.942,4,5.157,4,2.665,0,4.608-1.013,4.608-3.884v-4.554c.066-2.094.066-2.825,2.2-2.836h.74v9.041c0,1.221.137,1.393-1.771,1.393v.7c1.066-.019,2.046-.019,3.026-.035.979.016,1.96.016,3.026.035v-.7c-1.909,0-1.771-.172-1.771-1.393V216.5h.74c1.908,0,1.951.567,2.208,2.509H65.86c.258-1.943.3-2.509,2.208-2.509h.74v9.041c0,1.221.137,1.393-1.771,1.393v.7c1.066-.019,2.045-.019,3.025-.035.98.016,1.96.016,3.026.035v-.7c-1.908,0-1.77-.172-1.77-1.393V216.5h.738c1.909,0,1.926.4,2.184,2.338H75.5l.08-3.094Z" transform="translate(-26.68 -163.641)" fill="#fff"/>
      <path id="Caminho_331" data-name="Caminho 331" d="M7.99,215.077a8.372,8.372,0,0,0-3.314-.644c-2.218,0-4.676,1.284-4.676,3.746,0,3.077,2.888,3.2,5.124,3.988a1.832,1.832,0,0,1,1.255,1.873,2.214,2.214,0,0,1-2.407,2.235c-2.1,0-2.51-1-2.665-2.9H0v3.007a13.445,13.445,0,0,0,3.834.6c2.51,0,5.038-.91,5.038-3.832,0-2.183-1.17-2.785-3.026-3.369-1.289-.413-3.4-.533-3.4-2.32,0-1.409,1.41-2.028,2.734-2.028,1.334.071,2.25.43,2.1,2.387h.717Z" transform="translate(0 -162.73)" fill="#fff"/>
    </g>
  </g>
</svg>
