<svg xmlns="http://www.w3.org/2000/svg" xmlns:xlink="http://www.w3.org/1999/xlink" width="82.148" height="115.774" viewBox="0 0 82.148 115.774">
  <defs>
    <clipPath id="clip-path">
      <rect id="Ret창ngulo_2748" data-name="Ret창ngulo 2748" width="82.148" height="115.774" fill="none"/>
    </clipPath>
  </defs>
  <g id="Grupo_1816" data-name="Grupo 1816" transform="translate(0 -0.003)">
    <rect id="Ret창ngulo_2747" data-name="Ret창ngulo 2747" width="82.148" height="115.774" transform="translate(0 0.003)"/>
    <g id="Grupo_1786" data-name="Grupo 1786" transform="translate(0 0.003)">
      <g id="Grupo_1785" data-name="Grupo 1785" transform="translate(0 0)" clip-path="url(#clip-path)">
        <path id="Caminho_254" data-name="Caminho 254" d="M1109.328,2940.417a8.432,8.432,0,0,0-1.579-.2c-5.426,0-8.976,4.456-8.976,9.933,0,5.28,3.747,9.934,8.976,9.934a8.088,8.088,0,0,0,1.579-.147v-5.739a3.879,3.879,0,0,1-4.09-4.048,3.958,3.958,0,0,1,4.09-4.251Zm3.9,19.058h6.415v-27.359h-6.415v10.555a6.885,6.885,0,0,0-3.9-2.254v5.477c2.717,0,4.1,1.843,4.1,4.251a3.8,3.8,0,0,1-4.1,4.048v5.739a5.73,5.73,0,0,0,3.9-2.664Z" transform="translate(-1070.418 -2856.45)" fill="#fff"/>
        <path id="Caminho_255" data-name="Caminho 255" d="M488.694,2937.988v-5.9H471.725v27.359h16.969v-6.1H478.578v-4.607H488.3v-6.095h-9.725v-4.66Z" transform="translate(-459.552 -2856.427)" fill="#fff"/>
        <path id="Caminho_256" data-name="Caminho 256" d="M1915.713,3259.852a3.88,3.88,0,0,1-4.095-4.048,3.96,3.96,0,0,1,4.095-4.251v-5.477a8.4,8.4,0,0,0-1.581-.2c-5.421,0-8.976,4.455-8.976,9.932,0,5.28,3.7,9.934,8.976,9.934a8.261,8.261,0,0,0,1.581-.146Zm0-8.3c2.718,0,4.092,1.844,4.092,4.251a3.8,3.8,0,0,1-4.092,4.048v5.741a5.751,5.751,0,0,0,3.9-2.666v2.206h6.413v-18.649h-6.413v1.845a6.937,6.937,0,0,0-3.9-2.254Z" transform="translate(-1855.99 -3162.109)" fill="#fff"/>
        <path id="Caminho_257" data-name="Caminho 257" d="M527.328,470.591h-57.92v60.087h57.92V510.3H508.185l7.6-7.888h0v-3.635h0l-7.409-7.737h18.954ZM524.021,487.4H490.277v3.634h13.077l7.413,7.738H492.577a2.871,2.871,0,0,0-2.3-1.031,2.709,2.709,0,0,0-2.759,2.822,2.844,2.844,0,0,0,5.144,1.845h18.245l-7.555,7.888H490.277v3.636h33.744v13.116H472.913V474.235h51.108Z" transform="translate(-457.294 -458.447)" fill="#fee44f"/>
      </g>
    </g>
  </g>
</svg>
